<svg xmlns="http://www.w3.org/2000/svg" viewBox="0 0 128 128">
  <defs>
    <linearGradient id="grad" x1="0%" y1="0%" x2="100%" y2="100%">
      <stop offset="0%" stop-color="#4da3ff"/>
      <stop offset="100%" stop-color="#1b71d9"/>
    </linearGradient>
  </defs>
  <rect width="128" height="128" rx="20" fill="url(#grad)"/>
  <g fill="#ffffff">
    <path d="M40 64a24 24 0 0148 0 24 24 0 01-48 0zm24-14a14 14 0 1014 14A14 14 0 0064 50z" opacity="0.85"/>
    <path d="M64 30a6 6 0 016 6v8a6 6 0 01-12 0v-8a6 6 0 016-6zm0 48a6 6 0 016 6v8a6 6 0 01-12 0v-8a6 6 0 016-6zm26-26a6 6 0 016 6h8a6 6 0 010 12h-8a6 6 0 01-12 0 6 6 0 016-6zM32 64a6 6 0 016-6h-8a6 6 0 000 12h8a6 6 0 01-6-6z"/>
  </g>
</svg>
